<svg width="24" height="24" viewBox="0 0 24 24" fill="none" xmlns="http://www.w3.org/2000/svg">
<g clip-path="url(#clip0_4124_7763)">
<path d="M18.6667 20H10.6667V14.6666H9.33333V20H5.33333V14.6666H4V20C4 20.3536 4.14048 20.6927 4.39052 20.9428C4.64057 21.1928 4.97971 21.3333 5.33333 21.3333H18.6667C19.0203 21.3333 19.3594 21.1928 19.6095 20.9428C19.8595 20.6927 20 20.3536 20 20V14.6666H18.6667V20Z" fill="#603F8B"/>
<path d="M22.5266 8.84663L19.8066 3.40663C19.6962 3.18448 19.526 2.99754 19.3152 2.86681C19.1044 2.73608 18.8613 2.66676 18.6133 2.66663H5.3866C5.13854 2.66676 4.89544 2.73608 4.68463 2.86681C4.47381 2.99754 4.30365 3.18448 4.19326 3.40663L1.47326 8.84663C1.38039 9.03295 1.33245 9.23844 1.33326 9.44663V11.5C1.33265 11.8115 1.44115 12.1134 1.63993 12.3533C1.9337 12.69 2.29653 12.9596 2.70375 13.1437C3.11097 13.3277 3.55305 13.422 3.99993 13.42C4.72911 13.4211 5.43605 13.169 5.99993 12.7066C6.5638 13.1692 7.27059 13.422 7.99993 13.422C8.72927 13.422 9.43606 13.1692 9.99993 12.7066C10.5638 13.1692 11.2706 13.422 11.9999 13.422C12.7293 13.422 13.4361 13.1692 13.9999 12.7066C14.5638 13.1692 15.2706 13.422 15.9999 13.422C16.7293 13.422 17.4361 13.1692 17.9999 12.7066C18.6294 13.2234 19.4347 13.4761 20.2465 13.4114C21.0584 13.3468 21.8135 12.9699 22.3533 12.36C22.5544 12.121 22.6653 11.819 22.6666 11.5066V9.44663C22.6674 9.23844 22.6195 9.03295 22.5266 8.84663ZM9.99993 9.59996V10.6133L9.45326 11.3333C9.28545 11.562 9.06613 11.748 8.81306 11.8762C8.55999 12.0044 8.28028 12.0712 7.99659 12.0712C7.7129 12.0712 7.4332 12.0044 7.18013 11.8762C6.92706 11.748 6.70774 11.562 6.53993 11.3333L5.99993 10.5866V9.59996L7.7266 3.99996H10.6666L9.99993 9.59996ZM17.9999 10.5866L17.4599 11.3333C17.2921 11.562 17.0728 11.748 16.8197 11.8762C16.5667 12.0044 16.287 12.0712 16.0033 12.0712C15.7196 12.0712 15.4399 12.0044 15.1868 11.8762C14.9337 11.748 14.7144 11.562 14.5466 11.3333L13.9999 10.5866V9.59996L13.3333 3.99996H16.2999L17.9999 9.59996V10.5866Z" fill="#603F8B"/>
</g>
<defs>
<clipPath id="clip0_4124_7763">
<rect width="24" height="24" fill="white"/>
</clipPath>
</defs>
</svg>
